<?xml version="1.0" encoding="UTF-8"?>
<!DOCTYPE svg PUBLIC "-//W3C//DTD SVG 1.1//EN" "http://www.w3.org/Graphics/SVG/1.1/DTD/svg11.dtd">
<!-- Creator: CorelDRAW -->
<svg xmlns="http://www.w3.org/2000/svg" xml:space="preserve" width="133.096mm" height="133.096mm" style="shape-rendering:geometricPrecision; text-rendering:geometricPrecision; image-rendering:optimizeQuality; fill-rule:evenodd; clip-rule:evenodd"
viewBox="0 0 133.096 133.096"
 xmlns:xlink="http://www.w3.org/1999/xlink"
 version="1.1"
 enable-background="new 0 0 491.701 496.216">
 <defs>
  <style type="text/css">
   <![CDATA[
    .fil0 {fill:black}
   ]]>
  </style>
 </defs>
 <g id="Layer_x0020_1">
  <metadata id="CorelCorpID_0Corel-Layer"/>
  <g id="_301273800">
   <path id="_301274232" class="fil0" d="M1.8562 0.9027l0 18.8291 12.4024 -0.0001 0 5.4901 -12.4024 0 0 19.3463 12.4024 0.0001 0 12.0147 18.4414 0 0 -12.0147 6.395 0 0 12.0147 12.8548 0c1.6153,3.2623 4.2307,6.1688 7.5578,6.7191 0.291,0.1283 0.291,1.0001 0.291,1.5174 0,8.6558 -9.7221,18.9905 -19.0884,18.9905 -8.3331,0 -14.8246,-7.9441 -14.8246,-12.8217 0,-3.1657 2.7451,-7.2353 7.2022,-7.2353 2.5519,0 4.6831,1.5835 4.6831,2.8429 0,1.1949 -0.2262,2.454 -0.8718,3.0681l-0.6453 0.0963c0.1614,-0.4194 0.4842,-0.6453 0.4842,-1.1628 0,-2.4223 -1.2925,-3.6169 -3.6499,-3.6169 -2.0667,0 -5.1673,3.0043 -5.1673,5.3287 0,2.5522 1.7119,4.49 2.5519,4.49 0.2249,1.3891 0.9366,3.8431 4.8114,3.8431 3.1975,0 5.039,-2.3257 6.2018,-5.6515 0,0 0.1614,-0.7104 0.4524,-0.7104 0.5159,0 1.6788,0.7104 1.6788,1.6788 0,0.3561 -0.3228,0.6787 -0.4524,0.7107 -1.7119,0.3559 -2.4223,1.3573 -2.4223,2.4868 0,1.9063 2.0677,4.1672 4.9742,4.1672 2.454,0 5.0059,-0.9366 5.0059,-4.1024 0,-0.9049 0.1614,-1.4539 0.4207,-1.615 0.2897,0.0979 0.6125,0.1942 0.9036,0.1942 1.7121,0 3.3589,-2.3257 3.3589,-5.846 0,-0.8083 -1.098,-2.4223 -1.1628,-2.3574l0 -0.4207c0.5173,-0.9036 0.9366,-2.0016 0.9366,-3.2623 0,-1.7754 -2.712,-5.4584 -5.2321,-5.4584 -3.5203,0 -5.3605,1.4539 -5.3605,4.2955 0,1.7119 0.3863,3.3602 2.4537,3.3602 0.0966,0 0.2262,-0.0979 0.2913,-0.0979 0.1281,0 0.1611,0.0979 0.1611,0.1945 0,0.7755 -0.8718,0.9036 -1.1959,0.9036 -1.13,0 -2.2609,-2.1312 -2.4223,-2.1312 -0.258,0 -0.3876,0.0648 -0.3876,0.291 0,1.5505 1.7767,2.5839 2.8099,2.5839 1.0345,0 2.0029,-0.6456 2.0029,-1.5822 0,-0.291 -0.1614,-0.6138 -0.1614,-0.8083 0,-0.0318 0.0318,-0.1614 0.0966,-0.1614 0.4855,0 0.8718,0.6138 0.8718,0.8718 0,2.1328 -2.2926,2.4223 -2.8099,2.4223 -1.5822,0 -3.3589,-1.614 -3.3906,-3.4227 -0.1942,-1.9063 -3.5203,-5.5563 -6.2016,-6.2016 1.0993,-1.0332 2.036,-1.9698 2.036,-3.4557 0,-2.0675 -1.0014,-3.1009 -3.0361,-3.1009 -1.7449,0 -2.6167,0.8718 -2.6167,2.6167 0,0.7422 0.9366,1.5822 0.9366,1.9368 0,0.549 -1.905,1.0663 -2.3257,1.4539 -3.7465,1.1628 -5.4584,2.5519 -7.8158,4.9093l-0.193 0c-0.226,-0.7435 -1.3891,-2.3257 -1.6801,-2.7133 0,-0.1931 0.291,-0.4842 0.7435,-0.4842 0.258,0 1.3242,0.2262 1.3242,0.807 0,0.1614 -0.1296,0.2593 -0.291,0.2593 -0.258,0 -0.5173,-0.2593 -0.7435,-0.2593 0.1614,0.4855 0.5173,0.8086 0.8083,0.8086 1.4208,0 2.4223,-1.2925 2.4223,-2.7781 0,-1.0332 -0.7104,-1.6788 -2.3905,-1.6788 -1.2594,0 -3.5205,0.3863 -3.8113,1.6788 -0.8718,-0.9366 -1.8733,-1.6153 -4.1989,-1.6153 -1.5822,0 -3.7783,0.2262 -5.1991,0.9049 -0.291,0.0318 -0.5821,0.0648 -0.8083,0.0648 -1.8733,0 -2.1312,-1.4208 -2.1312,-1.5505l0.258 -0.1614c0.3876,0.3228 1.0345,0.4842 1.5505,0.4842 0.8718,0 2.6816,-1.1946 2.6816,-2.3574 0,-0.4524 -0.2262,-1.0014 -0.7752,-1.7767 0.3228,-0.3876 0.4511,-0.8401 0.4511,-1.2925 0,-1.7105 -2.196,-3.4224 -4.0362,-3.4224 -4.8128,0 -6.1053,6.1688 -6.1053,7.7827 0,2.7464 1.4539,5.7176 4.3601,6.137 -1.5179,1.4539 -2.1318,3.6499 -2.1318,5.8142 0,1.5491 0.3559,3.1329 0.8718,4.3923 -0.0318,0.1611 -0.1931,0.3228 -0.4194,0.3228 -0.7104,0 -1.0014,-0.3559 -1.0332,-0.549 0,-0.1296 0.2897,-0.1296 0.2897,-0.1611 0,-0.1296 -0.1931,-0.1945 -0.3545,-0.1945 -1.2277,0 -1.8415,2.7133 -1.8415,3.1975 0,2.0346 0.9366,2.8429 3.0043,2.8429 1.5505,0 1.905,-1.1311 1.905,-2.1312 0,-0.421 -0.0648,-0.8403 -0.1614,-1.0993 2.4223,1.2607 3.3589,2.0029 5.2004,2.0029 0.226,0 1.2594,-0.0966 1.8402,-0.2913 0.291,0 0.4207,0.1296 0.4207,0.2262 0,0.0648 0,0.0979 -0.0331,0.1294 -0.6456,0.6456 -1.1628,1.6473 -1.1628,2.8747 0,2.2278 2.0995,2.6802 2.9395,2.6802 1.4856,0 4.1341,-1.7436 4.1341,-3.3904 0,-0.2913 -0.1614,-0.549 -0.5173,-0.8086 0.6469,-0.4194 1.8098,-1.647 1.8098,-2.712 0,-1.5184 -0.8731,-1.9378 -1.9381,-1.9378 -0.3559,0 -0.7104,0.0963 -1.0663,0.1281 0.549,-0.5159 1.8733,-3.0361 1.8733,-4.0693 0,-2.0013 -0.9684,-4.2624 -2.6802,-4.2624 -0.291,0 -0.6138,0.0318 -0.9366,0.1931 -0.2593,-0.9049 -1.7119,-1.3891 -2.7781,-1.3891 -2.7451,0 -3.8113,1.2277 -3.8113,3.6499 0,2.1312 0.7435,3.2941 3.1327,3.2941 0.1614,0 0.1945,0.0331 0.1945,0.0966 0,0.259 -1.2925,0.5818 -1.4539,0.5818 -2.3574,0 -3.1644,-1.9696 -3.1644,-3.9727 0,-4.3603 4.2624,-5.039 6.8143,-5.039 4.4569,0 5.1673,4.0706 5.6198,6.6212 -0.0966,0.4207 -0.1296,0.7752 -0.1296,1.0978 0,4.3603 2.0677,8.7537 4.1341,11.6919 -0.8387,-0.1614 -1.7436,-0.2262 -2.5506,-0.2262 -4.8445,0 -8.6241,2.4223 -11.0781,3.7148 -0.3876,0.0648 -0.9697,0.4524 -1.6153,0.4524 -0.258,0 -0.9366,-0.1296 -0.9366,-0.4842 0,-0.291 0.3559,-0.4207 0.549,-0.4207 0.1945,0 0.3228,0.0966 0.4842,0.0966 1.3891,0 1.8415,-2.5837 1.8415,-4.0045 0,-1.9698 -2.1643,-3.0033 -3.4885,-3.0033 -1.1628,0 -2.196,0.8387 -3.0361,2.5508 -2.0346,0.9697 -3.003,1.7119 -3.003,4.3283 0,2.1315 0.5805,4.4887 3.6486,4.4887 0.4207,0 0.9049,-0.0315 1.487,-0.1611l0.0318 0.1296c-1.1631,2.746 -3.166,6.3311 -3.166,9.9479 0,2.0675 0.8083,5.3949 1.0345,5.6843 0,0.2262 -0.0648,0.2913 -0.1945,0.2913 -0.4524,0 -1.0014,-0.549 -1.9381,-0.807 -0.6456,0.6773 -0.9036,1.5171 -0.9036,2.3257 0,1.647 1.1298,3.1644 2.5506,3.1644 0.9697,0 1.4539,-0.5173 1.4539,-1.8415l0 -1.0332c1.5187,2.1643 6.6529,5.846 6.6529,8.4942 0,1.5822 -0.807,4.5551 -3.5851,4.5551 -0.4842,0 -1.1628,-0.421 -1.1628,-0.9049 0,-0.1296 0.0979,-0.2913 0.226,-0.4196 0.4207,0 0.2913,0.5159 0.9049,0.5159 1.7767,0 2.5522,-1.4523 2.5522,-3.7465 0,-1.9696 -1.5187,-4.0375 -3.683,-4.0375 -2.7451,0 -3.3258,0.7755 -3.3258,1.7119 0,0.3231 0.0966,0.6469 0.2262,0.9697 -1.8084,1.4856 -2.4223,2.9064 -2.4223,4.1989 0,2.6487 2.5188,4.4887 3.003,4.4887l-0.1283 0.3879c-0.1296,-0.1296 -0.7435,-0.3548 -1.0014,-0.3548 -1.1311,0 -2.3905,2.0016 -2.3905,3.4875 0,2.4553 1.098,3.3586 2.2926,3.6817 -0.0966,0.291 -0.1283,0.4855 -0.1283,0.6784 0,1.0332 1.098,1.2928 1.6788,1.2928 3.1975,0 4.6831,-3.0043 4.6831,-3.973 0,-1.7767 -1.6788,-1.7767 -1.6788,-2.1643 0,-0.4524 0.5159,-1.1631 1.5174,-1.1631 2.2609,0 6.9771,-3.6817 6.9771,-8.042 0,-1.4208 -0.8718,-2.6485 -1.2277,-4.1341 0.3559,0.0318 1.2594,0.1296 2.196,0.1296 0.3559,0 0.7104,-0.0331 1.0332,-0.0979 -0.7752,0.7752 -1.1946,1.9381 -1.1946,2.9723 0,2.486 0.9684,2.5191 3.0678,2.6805 1.6153,-0.7437 3.2623,-1.7121 3.2623,-4.5535 0,-2.1328 -0.3228,-2.0029 -0.6138,-2.4553 3.4888,-2.1646 6.6863,-6.6863 6.8474,-9.8835 0.0331,-0.6773 0.0331,-1.4854 0.0331,-2.4537 0,-0.6787 -0.0979,-1.6473 -0.0979,-2.0677 0,-0.4511 0.4207,-1.1628 1.098,-1.1628 0.3876,0 0.549,0.226 0.549,0.6784 -0.7104,0.4524 -1.0001,0.9697 -1.0001,1.5505 0,2.971 2.6802,3.4234 2.7768,3.4234 2.0995,-0.0646 4.9093,-2.3257 4.9093,-4.2304 0,-3.7148 -2.1643,-6.1688 -4.0693,-6.1688 -0.258,0 -0.5173,0.0966 -0.7435,0.1614 0,-1.5835 -1.356,-2.9395 -3.1327,-2.9395 -3.6499,0 -4.0693,0.9366 -5.1991,3.0043 0.1614,0.3228 0.2262,0.5805 0.2262,0.8387 0,0.6466 -0.4855,0.8718 -1.0345,0.8718 -0.9036,0 -2.0667,-0.6125 -2.0667,-1.0332 0,-0.4842 1.0014,-0.5808 1.0014,-1.8084 0,-1.5505 -0.259,-2.6167 -2.6167,-2.6167 -1.3242,0 -5.6846,0.8401 -5.6846,4.9424 0,0.3228 0.0331,0.6787 0.0648,1.0332 -3.3589,0 -5.0059,4.3601 -5.0059,5.2649 0,3.5851 1.6153,4.6183 3.2292,4.6183 0.2593,0 0.5173,-0.0966 0.7752,-0.1611 0.8083,1.8399 2.0997,3.1644 3.8113,3.1644 0.7752,0 3.7783,-0.6776 3.7783,-2.2609l0 -0.1931c1.2277,-0.291 2.0995,-0.8083 2.0995,-2.5519 0,-1.1631 -0.258,-2.2611 -1.6788,-3.0364l-0.5167 -0.0001c0.0966,0.0966 0.1296,0.1614 0.1296,0.1945 0,0.1611 -0.3561,1.0978 -0.9366,1.0978 -0.2913,0 -0.7755,-0.3228 -0.7755,-0.8083 0,-0.6456 1.0014,-1.2912 2.3257,-1.2912 1.7119,0 2.7768,1.3242 2.7768,3.8431 0,4.6829 -5.3605,6.4595 -8.0089,6.4595 -3.7148,0 -8.7855,-3.4885 -8.7855,-8.4624 0,-6.1039 5.7491,-12.79 14.7929,-12.79 1.6788,0 4.9093,0.3876 6.9757,0.7752 2.0346,0.7435 5.6198,1.9063 8.8172,1.9711 -0.3545,0.5805 -0.5159,1.1298 -0.5159,1.6788 0,1.8415 1.647,3.6182 3.4224,3.6182 2.7133,0 4.1024,-2.5199 4.1024,-4.5866 0,-0.291 -1.3242,-0.5821 -1.3242,-0.8718 0,-0.1942 0.4524,-0.5821 1.5187,-0.9049 10.3346,-3.1009 18.3118,-13.5969 18.9587,-24.7081 0.1931,0.0648 0.7424,0.0966 1.0001,0.0966 10.4008,0 20.1216,-12.0147 24.1274,-19.6043 0.0966,0 0.1281,0 0.1611,0.0331 -0.0331,0.2897 -0.0331,0.7104 -0.0331,1.2263 0,0.1296 1.0345,1.098 1.7767,1.098 0.258,0 0.5493,-0.1283 0.7752,-0.3228 2.0029,-1.614 2.068,-2.3257 2.068,-2.8747l0 -0.258c0,-1.7119 -1.261,-3.6499 -2.6816,-3.6499 0,0.1296 -0.3881,0.9366 -1.098,0.9366 -0.291,0 -0.5808,-0.1283 -0.9684,-0.3876 0.0646,-0.1614 0.0966,-0.549 0.0966,-0.9684 0,-3.0361 -1.098,-11.3361 -2.4556,-12.4989 -0.4191,-1.8733 -0.8067,-3.6499 -0.8067,-5.8142 0,-3.6499 3.9079,-11.3361 11.0778,-11.3361 5.7494,0 9.3348,3.9396 9.3348,9.4959 0,4.7149 -3.9412,7.202 -6.1039,7.202 -3.5219,0 -4.813,-2.6816 -4.813,-4.2307 0,-1.2925 0.2585,-2.4871 2.5839,-2.4871 0.5173,0 0.5173,0.6138 0.5173,0.7422 -0.5173,-0.0648 -0.8083,-0.1283 -0.8083,-0.1931 -1.0329,0 -1.5171,0.9684 -1.5171,1.9698 0,2.7781 2.5188,2.7781 3.9079,2.7781 2.5519,0 4.6829,-1.9381 4.6829,-4.3286 0,-1.3242 -0.6784,-2.5837 -1.8412,-3.2623 0.3876,-0.4194 1.0975,-0.3545 1.0975,-2.4871 0,-0.1614 -0.8718,-4.0045 -6.7175,-4.0045 -0.8072,0 -3.5523,0.6138 -3.6169,3.2623 -0.6789,-0.0966 -1.0335,-0.1296 -1.3245,-0.1296 -3.7145,0 -5.4901,4.2638 -5.4901,7.6544 0,0.8731 0.1286,2.0675 1.5822,2.0675 2.3889,0 0.7422,-2.8429 2.0997,-2.8429 0.3545,0 0.6138,0.4855 0.6138,1.0993 -0.2593,0.3545 -0.3246,0.8387 -0.3246,1.356 0,2.1312 1.6484,5.3287 2.8432,5.7163 -2.617,0.8401 -4.1341,1.9381 -4.1341,4.9093 0,3.7796 3.003,4.9424 4.5863,4.9424 0.1617,0 0.3231,0 0.4196,-0.0331 0.1296,0.7107 0.9364,1.7767 1.4536,1.7767 1.8402,0 4.7149,-2.4223 4.7149,-5.2321 0,-1.5187 -1.1628,-2.7451 -2.6485,-2.7451 -0.5808,0 -2.1963,0.0318 -2.1963,0.7422 0,0.1614 0.0966,0.3876 0.1617,0.5821l-0.5808 -0.1945c-0.1296,-0.1296 -0.1611,-0.258 -0.1611,-0.3876 0,-0.7752 1.4205,-1.4539 2.7765,-1.6788 0.6138,0.1614 1.3891,0.2249 1.9698,0.2249 5.2001,0 8.0433,-2.6154 10.368,-7.8475 0.7432,0.5808 1.5182,0.8718 2.2939,0.8718 1.8402,0 3.4883,-1.6153 3.4883,-3.8761 0,-1.3877 -0.6784,-2.3892 -1.9378,-2.3892 -0.8403,0 -2.422,0.6776 -2.422,1.3891 0,0.3545 0.096,0.6125 0.3876,0.6125 0.3225,0 0.5157,-0.3545 0.8718,-0.3545 0,0.5808 -0.4207,0.9366 -0.9049,0.9366 -0.5162,0 -0.8403,-0.7435 -0.8403,-1.4208 0,-0.5173 0.0331,-0.8731 0.1942,-2.5522 0.6789,0.291 2.1648,0.6787 3.0036,0.6787 3.6179,0 8.3973,-2.9078 8.3973,-6.3632 0,-0.5173 -0.0646,-0.9366 -0.0646,-1.2925 0.8083,-1.2263 1.6153,-1.8733 1.6153,-2.0016l0.0315 0.3545c0,0.3876 0.5823,2.5519 2.1974,2.5519 1.4856,0 3.3909,-1.1298 3.3909,-3.4555 0,-0.8401 -0.3231,-1.5187 -1.0014,-1.9698 -0.1931,-3.0041 -1.9053,-3.7148 -3.7785,-3.7148 -2.5834,0 -4.0055,1.5822 -5.1035,2.8416 -1.2263,-1.1946 -2.7451,-2.1312 -4.5868,-2.1312 -1.4205,0 -4.2622,1.098 -4.2622,2.9395 0,0.3228 0.0966,0.5808 0.258,0.9366 -1.098,0.4194 -1.9698,1.647 -1.9698,2.7451 0,2.0346 4.005,4.0693 5.2007,4.0693 1.9047,0 3.1327,-1.3891 3.1327,-2.7451 0,-0.7752 -0.2593,-1.4208 -1.0014,-1.4208 -0.3561,0 -0.5823,0.1614 -0.9049,0.3545l-0.1931 -0.0648c0.258,-0.5159 0.7752,-0.9366 1.1628,-0.9366 1.6476,0.0648 1.679,1.2277 1.679,1.9381 0,1.3891 -1.5822,3.392 -3.9079,3.392 -1.4856,0 -3.1012,-0.6469 -4.2958,-1.5187 0,-0.6456 -2.2289,-3.0364 -3.8111,-4.0693l0.84 0c1.066,0 1.615,-1.1946 1.615,-2.4223 0,-1.2277 -0.5487,-2.0664 -1.6801,-2.0995 -0.0966,-0.8401 -0.8067,-1.1628 -1.6785,-1.1628 -1.3576,0 -3.0697,0.7104 -3.0697,1.3242 0,0.549 0.6138,1.8733 1.3245,1.8733 0.1611,0 0.4842,-0.258 0.7752,-0.258 0.1296,0 0.1942,0.0966 0.1942,0.2262 0,0.1931 -0.291,0.549 -0.8083,0.549 -2.3574,-1.1628 -4.9408,-1.9381 -7.751,-1.9381 -2.7451,0 -5.7494,1.2925 -6.2984,1.5822l0 -0.3545c0.1296,-0.1296 0.4842,-0.8083 0.4842,-1.2594 0,-2.0029 -0.9999,-2.8099 -2.8096,-2.8099 -0.7107,0 -3.1332,0.6125 -3.5854,1.2263 -0.3231,-0.2897 -1.1298,-0.807 -1.614,-0.807 -1.2279,0 -2.0349,1.1628 -2.0349,2.1643 0,0.3545 0.3551,0.6453 0.4196,1.1946 -0.1931,0.4524 -0.5808,0.8401 -0.5808,1.1946 0,2.0029 2.1963,2.7781 3.6489,2.7781 0.6784,0 0.7752,-1.098 1.1628,-1.098 0.0646,0 0.4522,0.3228 0.5487,0.7752 0,0.2262 -0.8718,1.2263 -1.324,1.8084 -2.1958,2.7465 -3.7132,5.104 -3.7132,9.2063l0 1.1946c-2.1328,-1.614 -5.6848,-3.6169 -9.852,-3.6169 -0.8067,0 -1.647,0.1296 -2.3238,0.3228 -2.5202,-0.4194 -6.9125,-2.3905 -6.9125,-5.7494 0,-2.5837 1.5505,-5.1356 4.5535,-5.1356 1.7452,0 2.3905,0.9697 2.585,2.9395l-0.1942 0.258c-0.4527,-1.1946 -0.9684,-2.3892 -2.4871,-2.3892 -2.2926,0 -3.8111,2.2926 -3.8111,2.9064 0,1.1311 0.4842,2.5837 1.5833,2.5837 0.2582,0 0.3228,0.0331 0.3228,0.0966 0,0.2262 -0.2262,0.4855 -0.2262,0.7435 0,1.2277 1.8087,2.5837 4.4887,2.5837 1.261,0 2.6485,-1.615 2.6816,-1.615 1.4856,1.4539 0.9038,2.4223 4.4887,2.4223 1.6153,0 3.424,-1.2912 3.5854,-2.9064 1.0345,-0.2262 2.3905,-0.9684 2.3905,-4.0045 0,-1.8415 -2.0344,-3.1009 -4.0375,-3.1009 -2.454,0 -3.003,1.4208 -3.003,2.4553 0,0.5808 0.6771,1.1298 1.0975,1.1298 0.4527,0 1.1631,-0.2262 1.1631,-0.807 0,-0.1296 0,-0.259 -0.0651,-0.4207l0.3228 0c0.291,0.1614 0.4842,0.3228 0.4842,0.4855 0,0.7739 -1.2594,1.614 -1.8402,1.614 -0.7437,0 -2.0029,-0.7752 -2.0029,-1.5174 0,-0.0966 0.0966,-0.2593 0.0966,-0.6138 0,-0.8401 -0.6138,-2.3905 -1.1628,-3.392 0.7432,0.2262 2.0024,0.5173 2.9393,0.5173 1.1298,0 2.1312,-0.5173 2.1312,-1.6153 0,-1.7436 -0.7752,-3.003 -2.7451,-3.003 -0.5808,0 -1.066,0.3228 -1.066,0.8401 0,0.1283 0.0646,0.2897 0.1611,0.4511 -0.4842,0.5173 -0.6776,0.5821 -1.2594,0.5821 -2.6805,0 -4.3921,-1.4208 -7.0403,-1.4208 -2.2294,0 -4.4902,0.9036 -5.7497,3.5203 -2.0664,-3.6504 -3.3258,-5.1677 -7.0088,-5.1677 -1.614,0 -6.3302,2.196 -6.3302,5.2321 0,0.7422 0.8083,1.2263 0.8083,1.8084 -0.291,0.5808 -0.7435,1.356 -0.7435,1.905 0,1.7119 1.7436,2.6816 3.3589,2.6816 3.6817,0 5.2972,-1.4221 5.2972,-3.134 0,-0.6456 -0.1931,-1.2912 -0.549,-1.8733 -0.1614,-0.1614 -0.8401,-0.1283 -0.8401,-0.5808 0,-0.2262 0.4207,-0.3228 0.6784,-0.3228 1.356,0 2.4223,3.4555 2.6802,4.4569 -0.1611,0.291 -0.3228,1.1946 -0.3228,1.6153 0,1.7754 0.9697,4.0362 1.8084,4.6831 -1.356,0.0318 -2.0664,1.5822 -2.0664,3.1644 0,1.5187 0.6453,2.7133 1.8402,2.7133 1.1311,0 2.2291,-0.9366 2.9395,-1.8415 0,-0.1931 -0.1614,-0.1283 -0.3876,-0.5159 0,-0.3559 0.1614,-0.5173 0.5173,-0.5173 0.3545,0 0.807,0.226 1.356,0.7104 -1.098,0.4524 -5.297,4.5217 -5.297,9.2379 -0.3545,0.8401 -0.3876,1.9698 -1.0014,2.2278 -0.2582,-0.1614 -0.6776,-0.4511 -1.0649,-0.4511 -1.4856,0 -2.9395,1.2263 -2.9395,2.2278 0,1.6804 1.8415,2.9064 3.4237,2.9064 1.4208,0 2.7451,-1.2263 2.7451,-2.6802 1.1959,2.3905 4.1024,5.5232 6.3302,6.6212 1.0017,0.549 1.8735,1.0014 1.8735,2.2278 0,0.5173 -0.2585,2.6167 -1.3245,2.6167 -0.2249,0 -0.5159,-0.0318 -0.5159,-0.3559 0.3548,-0.6456 0.5159,-0.9036 0.5159,-1.5491 0,-1.9381 -1.9368,-3.2954 -3.5203,-3.2954 -1.356,0 -3.0996,1.0014 -3.0996,2.6167 0,0.0648 0.0318,0.1931 0.0318,0.3228 -0.6456,0.1929 -1.8415,0.8401 -1.8415,1.9698 0,2.5837 2.7133,6.4281 5.4266,6.4281 1.0663,0 1.098,0 1.4856,-0.2262 0.7424,0.6456 1.0665,2.196 3.4237,2.196 2.7136,0 5.0374,-1.615 5.362,-4.3921 0.0635,-0.291 0.2895,-0.4207 0.5487,-0.4207 0.3231,0 0.9369,0.259 1.2914,0.259 2.6165,0 5.3935,-3.9092 5.3935,-5.588 0,-3.8428 -1.2594,-4.2638 -3.5854,-4.2638 -1.356,0 -2.3244,0.549 -2.3244,1.2594 0,0.3241 0.3545,0.7752 0.3545,1.0345 0,0.258 -0.1929,0.3228 -0.3876,0.3228 -0.9364,0 -1.2909,-0.7104 -1.5502,-2.0677 1.8412,-0.1283 6.7826,-6.0391 6.7826,-8.9456 0,-1.8415 -0.8718,-4.0375 -3.0361,-4.0375 -0.3545,0 -0.8072,0.0966 -1.2914,0.1929 -0.8398,-1.7436 -1.1959,-3.4237 -4.3934,-3.4237 -1.8082,0 -6.9107,3.1975 -6.9107,6.0722 0,1.8415 1.1628,3.6182 2.9382,3.6182 1.4867,0 2.1974,-0.6138 2.1974,-1.1959 0,-0.3876 -0.1942,-0.4842 -0.1942,-0.6773 0,-0.0979 0.1296,-0.2262 0.3556,-0.2262 0.4527,0 0.7107,0.4524 0.7107,0.9036 0,2.0029 -2.7136,2.7781 -3.1978,2.7781 -2.713,-0.1614 -4.0055,-3.2292 -4.0055,-5.2004 0,-2.8416 3.8113,-6.9757 8.2047,-6.9757 2.8096,0 7.6213,2.5837 9.3012,4.5866 2.3905,2.8416 2.7136,5.0059 2.7136,8.0089 0,10.9167 -8.0751,19.5726 -18.4745,22.4155 -0.1614,-3.3271 -4.8776,-7.6875 -7.4282,-7.7192l0 0.9036c2.4223,0 6.6847,4.4252 6.7826,7.5909 12.4989,-1.647 20.0237,-13.6948 20.0237,-23.1907 0,-3.6486 -1.0644,-5.8777 -3.003,-8.4942 -1.9063,-2.486 -7.461,-4.9411 -9.9153,-4.9411 -3.9079,0 -9.0117,4.1024 -9.0117,7.8158 0,3.0043 1.7449,5.9756 4.9411,5.9756 2.0029,0 3.8111,-2.4871 3.8111,-3.4885 0,-0.4524 -0.4511,-1.5174 -0.9684,-1.5174 -0.1942,0 -0.5487,0.1283 -0.8398,0.1283 -0.3231,0 -0.4842,-0.1614 -0.4842,-0.4511 0.1611,-0.3559 0.4522,-0.5173 0.8718,-0.5173 1.615,0 1.9063,1.5174 1.9063,2.2926 0,2.4553 -2.6485,4.2638 -4.4257,4.2638 -4.3601,0 -5.5877,-3.6499 -5.5877,-6.686 0,-4.1659 6.1039,-8.5579 9.7869,-8.5579 3.1327,0 9.107,3.0348 10.6902,5.3287 2.0667,2.9064 2.9713,5.588 2.9713,8.849 0,12.4023 -9.8504,22.8349 -20.574,23.9329 0.1296,0.9049 0.3876,2.4553 0.5173,3.2941l-0.8083 -0.1614c-0.7104,-5.1356 -1.7119,-9.3014 -6.5881,-10.6905 -0.7435,-0.1931 -0.8401,-0.3876 -0.8401,-0.7752l0 -13.5969 -12.4022 -0.0001 0 -6.2651 12.4354 0 0 -18.1835 -12.0161 0 0 -12.4023 -19.2166 0 0 12.4023 -5.588 0 0 -12.4023 -19.2485 0 0 0zm39.1121 84.5872c-6.944,0 -16.6979,-6.7178 -16.6979,-14.5336 0,-4.5866 3.8431,-9.1731 8.8172,-9.1731 4.6514,0 6.395,3.1975 6.395,4.8128 0,1.098 -0.3545,5.0707 -3.1975,5.0707 -0.8401,0 -2.0029,-0.9049 -2.0346,-1.9063l0.3559 -0.1611c0.1614,0.549 0.8718,1.2594 1.647,1.2594 2.2278,0 2.454,-3.0996 2.454,-4.2624 0,-2.0029 -3.003,-4.0058 -5.6198,-4.0058 -4.3273,0 -7.9772,4.232 -7.9772,8.3979 0,8.3331 10.0118,13.63 15.6316,13.63 10.4325,0 19.9284,-10.8201 19.9284,-21.3162 0,-2.5519 -0.6138,-4.5217 -1.9381,-6.0074 -0.4842,-0.5173 -0.8401,-0.9379 -1.0663,-1.5187l-0.0318 -0.5808c3.1009,2.2609 3.8751,5.6198 3.8751,8.1703 -0.0001,10.6269 -10.7872,22.1243 -20.541,22.1243l0 0 0 0zm-13.888 15.9229c0,5.7811 -6.2008,8.01 -9.6242,8.01 -5.4266,0 -10.401,-3.5851 -10.401,-10.0132 0,-8.0092 6.8157,-14.4039 16.4084,-14.4039 1.0014,0 2.422,0.0318 4.1341,0.5159l1.0978 0.7752c-1.4856,-0.2897 -3.6817,-0.4842 -5.2319,-0.4842 -7.8489,0 -15.5998,4.5868 -15.5998,13.5972 0,5.7491 5.5867,9.2697 9.5925,9.2697 4.2622,0 8.8172,-2.8747 8.8172,-7.2668 0,-2.0667 -0.8083,-4.6831 -3.5851,-4.6831 -1.7767,0 -3.2306,0.7752 -3.2306,2.422 0,0.6787 0.5821,0.8072 0.8401,1.098 -0.3545,0.2262 -0.5808,0.3228 -0.7752,0.3228 -0.5159,0 -1.0014,-0.6136 -1.0014,-1.0647 0,-2.4871 2.2609,-3.5536 4.1672,-3.5536 4.3271,0.0001 4.3919,4.0049 4.3919,5.4587l0 0 0 0zm-24.4171 -99.7032l17.6027 0 0 23.5122 -0.8083 0 0 -22.7052 -16.0192 0 0 15.5998 10.8202 0 0 0.8083 -11.5954 0.0001 0 -17.2152 0 0zm98.896 25.2241c4.069,0 7.1054,-4.7149 7.1054,-8.5262 0,-5.9756 -4.7149,-9.8835 -10.11,-9.8835 -6.2338,0 -11.9166,5.588 -11.9166,12.0478 0,1.1631 0.5157,3.973 0.7101,5.1673l-0.8083 -0.807c-0.3545,-2.0677 -0.5157,-3.1975 -0.5157,-4.1341 0,-8.0423 6.5881,-12.8879 12.5955,-12.8879 5.5877,0 10.7233,3.8113 10.7233,10.4656 0,5.3605 -3.6499,9.2366 -7.9452,9.2366 -3.5854,0 -6.0725,-2.0677 -6.0725,-5.9108 0,-2.7451 1.0329,-4.0045 3.6169,-4.0045 1.5502,0 2.617,0.5159 2.617,1.6153 0,1.0649 -0.5493,1.6788 -1.0335,1.8402l-0.0331 -0.4524c0.3231,-0.4842 0.4842,-0.9036 0.4842,-1.2263 0,-0.6787 -0.6771,-1.0014 -2.0013,-1.0014 -1.9698,0 -2.9393,1.098 -2.9393,3.2941 -0.0001,3.327 2.5187,5.1672 5.5231,5.1672l0 0 0 0zm-73.2513 -24.4171l0 10.7884 -0.84 0 0 -11.5954 17.6675 0 0 23.3839 -0.84 0 0 -22.5769 -15.9875 0 0 0zm-25.6447 23.4805l24.0295 0 0 0.8083 -23.2543 0 0 16.1488 10.8202 0 0 0.807 -11.5954 0 0 -17.7641 0 0zm12.4023 5.6197l0.807 0 0 23.3521 15.2122 0 0 -10.4008 0.8083 0.0001 0 11.2078 -16.8275 -0.0001 0 -24.1591 0 0zm18.0221 -0.9035l0 -0.8083 23.2225 0 0 -14.986 -10.4008 0 0 -0.807 11.2075 0 0 16.6013 -24.0292 0 0 0zm0 7.0405l0 -6.2336 6.0074 0 0 6.2336 -6.0074 0 0 0zm-24.8364 -6.137l6.0074 0 0 6.137 -6.0074 0 0 -6.137 0 0zm12.4341 0l6.0074 0 0 6.137 -6.0074 0 0 -6.137 0 0zm-14.0176 -25.5468l9.2048 0 0 19.1519 -0.807 -0.0001 0 -18.3449 -7.6226 0 0 7.235 6.8157 0.0001 0 0.807 -7.5909 0 0 -8.849 0 0zm1.6153 1.6153l5.9756 0 0 5.6198 -5.9756 -0.0001 0 -5.6197 0 0zm37.207 36.8829l6.0073 0 0 5.588 -6.0073 0 0 -5.588 0 0zm-12.0147 -31.2632l0 -5.6198 5.6197 0.0001 0 5.6198 -5.6197 -0.0001 0 0zm-12.79 31.2632l5.588 0 0 5.588 -5.588 0 0 -5.588 0 0zm12.4354 -24.8047l5.9743 0 0 5.2004 -6.0074 0 0.0331 -5.2004 0 0zm-12.0478 -0.0318l5.6198 0 0 5.4901 -5.6198 0 0 -5.4901 0 0zm24.8364 0l5.588 0 0 5.3618 -5.588 0 0 -5.3618 0 0zm-39.2416 19.6043l0 -9.3332 20.025 0.0001 0 0.807 -19.2498 -0.0001 0 7.751 6.8157 0 0 0.7752 -7.5909 0 0 0zm33.2343 -7.8475l0.8083 0 0 23.4804 10.787 0 0 0.807 -11.5953 0 0 -24.2874 0 0zm-12.8217 19.4746l0 -6.395 0.807 0.0001 0 7.2033 -8.8173 -0.0001 0 -20.1546 0.8083 0 0 19.3463 7.202 0 0 0zm26.0323 -32.8467l0 8.591 -20.025 0.0001 0 -0.807 19.2167 0 0 -6.9757 -6.395 0 0 -0.8084 7.2033 0 0 0zm-21.2196 -4.8114l0 -7.235 8.8173 0 0 19.0235 -0.8083 0 0 -18.1835 -7.202 0 0 6.395 -0.807 0 0 0zm-20.5422 60.0739c-2.6154,0 -4.6831,-3.0364 -4.6831,-5.7494 0,-4.8128 5.33,-6.6532 8.3979,-6.6532 3.1657,0 6.6212,2.7768 6.8143,6.0722l-0.4511 1.2914c-0.2262,-0.9684 -0.1945,-1.5174 -0.6787,-2.5191 -1.0332,-2.196 -3.3271,-4.0375 -5.6846,-4.0375 -3.3271,0 -7.6226,2.0346 -7.6226,5.846 0,2.3905 1.4856,4.9742 4.0058,4.9742 0.549,0 2.2609,-0.226 2.2609,-1.2277l0 -0.9366c0.0318,-0.0648 0.1283,-0.0648 0.2897,-0.0648 0.1296,0.2262 0.4207,0.8083 0.4207,1.0014 0,1.2276 -1.6801,2.0031 -3.0692,2.0031l0 0 0 0zm45.7663 -34.8181l0 17.6027c0,0.6453 1.3891,3.1009 2.2291,3.1009 0.0966,0 0.1283,0 0.2262,-0.0648l0.2262 0.7104c-0.0331,0 -0.0648,0.0318 -0.1627,0.0318 -1.3877,-0.0966 -3.3258,-2.2926 -3.3258,-3.9079l0 -16.6979 -10.8201 0 0 -0.7752 11.6271 0 0 0zm-13.2093 -7.0723l0.807 0 0 19.4429 6.7825 0 0 0.8401 -7.5895 -0.0001 0 -20.2829 0 0zm23.2225 -13.6948c-2.5519,-0.226 -5.3618,-2.3574 -5.3618,-5.8129 0,-3.7796 2.1312,-6.5564 6.1685,-6.5564 2.4871,0 3.973,2.6154 3.973,3.6169 0,2.0664 -1.324,2.5837 -2.2294,2.5837 -0.5487,0 -0.8398,-0.2262 -0.8398,-1.0332 0.0976,-0.0648 0.1627,-0.1296 0.291,-0.1296l0.8083 0.3228c0.8387,0 1.1618,-1.0649 1.1618,-1.5822 0,-0.5808 -0.9038,-3.2292 -3.1327,-3.2292 -3.6817,0 -5.4901,2.6485 -5.4901,6.0074 0,3.0678 2.2926,4.1659 5.0374,5.5867l-0.3862 0.226 0 0zm-14.0825 39.8872c-0.549,-1.7105 -0.7435,-3.7783 -0.7435,-5.9095l0 -8.0103 -6.8143 0.0001 0 -0.807 7.6226 0 0 8.8172c0,3.1975 0,4.0045 0.807,6.395l-0.8718 -0.4855 0 0zm-20.7671 -19.9271l-0.8401 0 0 -18.0221 0.8401 0 0 18.0221 0 0zm-11.5954 5.2004l18.4097 0 0 0.807 -18.4097 0 0 -0.807 0 0zm0 -4.3934l18.4097 0 0 0.7752 -18.4097 0 0 -0.7752 0 0zm0.3876 -20.4444l18.0221 0 0 0.8083 -18.0221 0.0001 0 -0.8084 0 0zm18.0221 -4.0044l0 0.807 -17.9903 0 0 -0.807 17.9903 0 0 0zm-30.0686 107.778c-1.5187,0 -2.6816,-0.6787 -2.6816,-2.8429 0,-0.6453 1.2277,-1.1298 1.2594,-1.1298 0.0648,0 0.0979,0 0.0979,0.0963 -0.4524,0.5173 -0.6787,0.9049 -0.6787,1.1949 0,1.3242 0.4194,1.8415 2.0346,1.8415 3.3589,0 4.1989,-3.6182 4.1989,-5.4584 0,-0.549 -0.4842,-3.1975 -0.807,-3.5205l0.6122 0.1931c0.4524,0.9366 1.0014,2.2291 1.0014,3.3271 0.0006,3.0681 -1.0326,6.2987 -5.0371,6.2987l0 0 0 0zm103.126 -108.618c1.4856,0.6787 2.8747,1.2925 4.1992,1.2925 2.1627,0 4.6829,-2.4553 4.6829,-4.1672 0,-2.3257 -2.0344,-2.6802 -2.3905,-2.6802 -1.4536,0 -1.9378,1.4208 -2.2609,1.8415l-0.1611 -0.0331c0,-1.4856 1.0014,-2.5519 2.5188,-2.5519 1.2925,0 3.0692,1.5505 3.0692,3.4885 0,2.7451 -3.5848,4.6831 -5.5563,4.6831 -1.2594,0 -2.3889,-0.5808 -3.778,-1.0663l-0.3233 -0.8069 0 0zm-84.0711 6.4598l0 18.0221 -0.6138 0 0 -18.0221 0.6138 0 0 0zm31.2645 -9.2696c-0.1945,-2.3574 -1.7119,-4.5217 -3.2623,-4.5217 -0.6787,0 -1.3242,0.4207 -1.3242,1.0014 0,0.3559 0.3876,0.6456 0.3876,1.098 0,0.0648 -0.0331,0.0966 -0.0966,0.0966 -0.1296,0 -0.9697,-0.549 -0.9697,-1.2263 0,-1.0663 1.0332,-1.6801 1.6801,-1.6801 1.5505,0 3.7465,1.356 3.973,4.2307l-0.3879 1.0014 0 0zm9.7541 30.7803c0.5802,0.5808 0.8718,1.7119 0.8718,2.3257 0,1.8733 -1.1311,3.7783 -2.8419,3.7783 -1.0663,0 -1.8733,-0.6787 -1.8733,-1.1628 0,-0.0966 0.0318,-0.3876 0.1929,-0.3876 0.1296,0 1.0014,0.7755 1.8735,0.7755 1.4536,0 2.1312,-1.7436 2.1312,-3.1009 0,-0.9036 -0.8718,-1.8733 -1.3245,-2.2926l0.9703 0.0644 0 0zm-60.0421 18.1186c-0.1931,0.0966 -0.2262,0.258 -0.5173,0.258 -1.3242,0 -2.4223,-1.1298 -2.4223,-2.6802 0,-0.6456 0.7107,-1.9698 1.1631,-1.9698 0.1296,0 0.3228,0.0318 0.3228,0.1931 0,0.4842 -0.6773,1.1311 -0.6773,1.7449 0,1.356 1.1628,1.9368 1.614,1.9368 0.2262,0 0.8083,0 1.3891,-0.0966l-0.8721 0.6138 0 0zm89.6577 -28.4215c-0.7101,0.3228 -2.4858,0.807 -2.4858,2.0664 0,0.8718 0.9684,1.1311 1.7121,1.1311 0.5808,0 0.7736,-0.3876 0.9999,-0.3876 0.1611,0 0.2262,0.0635 0.2262,0.1931 0,0.291 -0.4842,1.0014 -1.1949,1.0014 -1.1943,0 -2.5834,-0.807 -2.5834,-2.0029 0,-1.1946 1.4205,-2.196 2.5834,-2.3892l0.7425 0.3877 0 0zm-25.0293 9.6242c0.4511,1.0014 0.4511,2.6167 2.1312,2.6167 1.0335,0 0.8718,-1.3891 1.356,-1.3891 0.1296,0 0.1947,0.1283 0.1947,0.1931 0,1.0014 -0.4207,1.9698 -1.6806,1.9698 -1.5502,0 -2.4866,-2.0344 -2.5188,-3.1644l0.5175 -0.2261 0 0zm50.5132 -31.6521c-0.1286,-0.0648 -0.2262,-0.6773 -0.2262,-0.807 0,-0.8401 0.5818,-1.8084 2.1643,-1.8084 0.6138,0 1.2279,0.3228 1.2279,1.0649 0,0.3241 -0.0966,0.5821 -0.0966,0.5821l-0.2262 0.0318c-0.291,-0.5808 -0.7115,-0.8401 -0.9694,-0.8401 -1.3896,0 -1.6481,0.8083 -1.8738,1.7767l0 0 0 0zm-94.4062 87.9792c-0.0966,-0.3228 -0.1945,-0.5487 -0.1945,-0.7422 0,-0.6469 0.3559,-1.0663 1.1962,-1.5835 1.9696,0 2.7451,1.0014 2.7451,1.1631 0,0.1296 -0.0966,0.291 -0.2262,0.4207 -0.6138,0 -1.1946,-1.0663 -2.0677,-1.0663 -0.8073,0.3229 -1.3881,1.8082 -1.4529,1.8082l0 0 0 0zm12.6934 -26.29c1.8084,0.1942 2.7768,1.7436 2.7768,3.3917 0,0.6776 -1.2277,2.3892 -1.7767,2.3892 -0.258,0 -0.3876,-0.3876 -0.3876,-0.5159 0.8083,-0.5173 1.3242,-1.1628 1.3242,-1.9063 0,-1.5171 -0.3876,-2.422 -2.2609,-2.4537l0.3242 -0.905 0 0zm22.4459 -49.8359c-0.2897,-0.5159 -0.9366,-0.9036 -2.0013,-0.9684 -0.3228,0 -0.7437,0.291 -1.0014,0.7422 -0.258,-0.0648 -0.291,-0.258 -0.291,-0.4194 0,-0.549 1.0014,-1.0663 1.2925,-1.0663 1.0332,0 2.3892,0.7104 2.5188,1.3573l-0.5176 0.3546 0 0zm-56.6817 66.3723c-0.8083,-0.4194 -1.8415,-0.3548 -1.8415,-2.0029 0,-0.7422 0.6784,-1.1615 1.5187,-1.1615 0,0.7422 -0.7117,0.3863 -0.7117,1.2263 0,1.0345 1.1311,0.8083 1.6484,1.3242l-0.6139 0.6139 0 0zm24.8047 -28.7128l0.8387 -0.6456c0.5173,-0.4207 0.8731,-0.7435 0.8731,-1.0978 -0.3241,-0.1614 -0.4855,-0.2593 -0.4855,-0.549 0,-0.1945 0.3241,-0.2262 0.4524,-0.2262 0.1614,0 0.7435,0.2262 0.7435,1.0332 0,0.4194 -0.5821,0.7422 -1.2277,1.2277l-0.3559 0.2897 -0.8386 -0.032 0 0zm55.2609 -50.5778l-0.5487 0.5159c-0.1296,-0.6456 -0.3876,-1.2594 -1.0665,-1.2594 -0.258,0 -0.5157,0.1296 -0.9364,0.1945 0.0976,-0.259 0.5487,-1.0345 1.3576,-1.0345 0.7418,0 1.194,1.2594 1.194,1.5835l0 0 0 0zm-28.583 24.9331c0,0.8401 -0.8086,1.5187 -1.4221,1.5187 -0.3863,0 -1.0649,-0.8083 -1.0649,-1.0345 0,-0.0966 0.1614,-0.1931 0.3545,-0.1931 0.2913,0 0.5173,0.5173 0.9049,0.5173 0.4524,0 0.807,-1.0345 1.0014,-1.8415l0.2262 1.0331 0 0zm-51.1929 92.0818c-0.807,0.6453 -0.8387,1.2594 -0.8387,1.3891 0,0.1929 0.9036,0.4194 0.9036,0.7422 0,0.0966 -0.1931,0.226 -0.4842,0.226 -0.549,0 -1.2277,-0.4842 -1.2277,-0.9366 0,-0.5818 0.6784,-1.4205 1.0345,-1.5819l0.6125 0.1612 0 0zm-3.1644 -18.701c-0.1945,0.3228 -0.4524,0.6456 -0.9366,0.807 -0.1945,-0.0963 -1.5187,-0.7422 -1.5187,-1.2912 0,-0.1294 0.0648,-0.1942 0.1614,-0.291 0.3241,0.1296 1.0345,0.8401 1.3573,0.8401 0.3228,0 0.4194,-0.3876 0.6456,-0.5173l0.291 0.4524 0 0zm9.0435 -30.3278c0.4842,0 0.8401,0.3228 0.8401,0.6787 0,0.6136 -0.7117,1.5502 -1.1959,1.5502 -0.1283,0 -0.1614,-0.1294 -0.1614,-0.3559 0,-0.1614 0.6787,-0.7752 0.6787,-1.1946 0,-0.3231 -0.4842,-0.3231 -0.4842,-0.5173l0.3227 -0.1611 0 0zm-8.9152 -2.1641c-0.1283,0.1945 -0.6125,0.5173 -1.0649,0.5173 -0.8401,0 -1.3891,-0.6787 -1.3891,-1.0663 0,-0.1283 0.0318,-0.1929 0.1296,-0.1929 0.1614,0 0.5808,0.5487 1.2594,0.5487 0.258,0 0.6138,-0.1294 0.7422,-0.258l0.3228 0.4512 0 0zm15.1805 38.9835c0.0331,0.1614 0.0648,0.3559 0.0648,0.549 0,0.8718 -0.3559,2.0344 -1.4856,2.0344l-0.3559 0c0,-0.5487 1.1311,-1.3242 1.1311,-2.3889l0.6456 -0.1945 0 0zm54.0663 -107.228c-0.3876,0 -0.7422,-0.1296 -1.2263,-0.291l-0.5503 -0.5821c0.4852,0.0648 1.0345,0.1945 1.5187,0.1945 0.5808,0 1.5822,-0.7752 1.8412,-1.1946 0.032,0.0635 0.0966,0.1931 0.0966,0.3228 0.0002,0.7103 -1.0981,1.5504 -1.6799,1.5504l0 0 0 0zm-31.2963 83.7155c0,0.3545 0.1614,1.1631 0.4524,1.1631 0.1614,0 0.4194,-0.1296 0.549,-0.1296 0.258,0 0.3545,0.1296 0.3545,0.3876 -0.2249,0.0648 -0.5808,0.2582 -0.7752,0.2582 -1.0001,0 -1.1615,-0.9684 -1.2263,-1.5174l0.6456 -0.1619 0 0z"/>
  </g>
 </g>
</svg>
